<svg width="23" height="17" viewBox="0 0 23 17" fill="none" xmlns="http://www.w3.org/2000/svg">
<path d="M22.8614 6.30156C22.8614 5.81676 22.7806 5.25106 22.7806 4.60456C22.6998 3.95816 22.619 3.31166 22.5382 2.74606C22.3766 2.09956 22.1341 1.61466 21.6493 1.21066C21.2452 0.806657 20.6796 0.564156 20.1139 0.483356C18.2554 0.240956 15.5079 0.160156 11.7907 0.160156C8.07347 0.160156 5.24517 0.240956 3.46747 0.483356C2.90177 0.564156 2.33617 0.806657 1.93207 1.21066C1.52807 1.61466 1.20477 2.09956 1.04317 2.74606C0.881571 3.31166 0.800771 3.87736 0.800771 4.60456C0.719971 5.25106 0.719971 5.81676 0.719971 6.30156C0.719971 6.78646 0.719971 7.35206 0.719971 8.16016C0.719971 8.96826 0.719971 9.61466 0.719971 10.0188C0.719971 10.5036 0.800771 11.0693 0.800771 11.7158C0.881571 12.3622 0.962371 13.0087 1.04317 13.5743C1.20477 14.2208 1.44727 14.7057 1.93207 15.1097C2.33617 15.5137 2.90177 15.7562 3.46747 15.837C5.32607 16.0794 8.07347 16.1602 11.7907 16.1602C15.5079 16.1602 18.3362 16.0794 20.1139 15.837C20.6796 15.7562 21.2452 15.5137 21.6493 15.1097C22.0533 14.7057 22.3766 14.2208 22.5382 13.5743C22.6998 13.0087 22.7806 12.443 22.7806 11.7158C22.8614 11.0693 22.8614 10.5036 22.8614 10.0188C22.8614 9.53386 22.8614 8.96826 22.8614 8.16016C22.8614 7.35206 22.8614 6.70556 22.8614 6.30156ZM16.0735 8.80666L9.68967 12.7663C9.60887 12.8471 9.44727 12.9279 9.28567 12.9279C9.12397 12.9279 9.04317 12.9279 8.88157 12.8471C8.63917 12.6855 8.47757 12.443 8.47757 12.1198V4.11976C8.47757 3.79656 8.63917 3.55406 8.88157 3.39246C9.12397 3.23086 9.44727 3.23086 9.68967 3.39246L16.0735 7.35206C16.316 7.51366 16.4776 7.75616 16.4776 7.99856C16.4776 8.24096 16.316 8.64496 16.0735 8.80666Z" fill="white"/>
</svg>
