<svg width="22" height="22" viewBox="0 0 22 22" fill="none" xmlns="http://www.w3.org/2000/svg">
<path d="M18.226 0.660156H3.024C1.3077 0.660156 0 1.96786 0 3.68416V18.8862C0 20.6025 1.3077 21.9102 3.024 21.9102H18.226C19.9423 21.9102 21.25 20.6025 21.25 18.8862V3.68416C21.25 1.96786 19.9423 0.660156 18.226 0.660156ZM10.625 17.6602C14.1394 17.6602 17 14.8814 17 11.5304C17 10.9583 16.9183 10.3044 16.7548 9.81396H18.5529V18.4775C18.5529 18.8862 18.226 19.2948 17.7356 19.2948H3.5144C3.1058 19.2948 2.6971 18.9679 2.6971 18.4775V9.73226H4.5769C4.4135 10.3044 4.3317 10.8765 4.3317 11.4487C4.25 14.8814 7.1106 17.6602 10.625 17.6602ZM10.625 15.2083C8.3365 15.2083 6.5385 13.4102 6.5385 11.2035C6.5385 8.99666 8.3365 7.19866 10.625 7.19866C12.9135 7.19866 14.7115 8.99666 14.7115 11.2035C14.7115 13.4919 12.9135 15.2083 10.625 15.2083ZM18.4712 6.46306C18.4712 6.95346 18.0625 7.36206 17.5721 7.36206H15.2837C14.7933 7.36206 14.3846 6.95346 14.3846 6.46306V4.25636C14.3846 3.76596 14.7933 3.35726 15.2837 3.35726H17.5721C18.0625 3.35726 18.4712 3.76596 18.4712 4.25636V6.46306Z" fill="white"/>
</svg>
