<svg width="20" height="20" viewBox="0 0 20 20" fill="none" xmlns="http://www.w3.org/2000/svg">
<g clip-path="url(#clip0_2301_679)">
<path d="M17.9697 19.0303C18.2626 19.3232 18.7374 19.3232 19.0303 19.0303C19.3232 18.7374 19.3232 18.2626 19.0303 17.9697L17.9697 19.0303ZM15.75 9C15.75 12.7279 12.7279 15.75 9 15.75V17.25C13.5563 17.25 17.25 13.5563 17.25 9H15.75ZM9 15.75C5.27208 15.75 2.25 12.7279 2.25 9H0.75C0.75 13.5563 4.44365 17.25 9 17.25V15.75ZM2.25 9C2.25 5.27208 5.27208 2.25 9 2.25V0.75C4.44365 0.75 0.75 4.44365 0.75 9H2.25ZM9 2.25C12.7279 2.25 15.75 5.27208 15.75 9H17.25C17.25 4.44365 13.5563 0.75 9 0.75V2.25ZM19.0303 17.9697L14.8428 13.7821L13.7821 14.8428L17.9697 19.0303L19.0303 17.9697Z" fill="white"/>
</g>
<defs>
<clipPath id="clip0_2301_679">
<rect width="19" height="19" fill="white" transform="translate(0.5 0.5)"/>
</clipPath>
</defs>
</svg>
